<svg xmlns="http://www.w3.org/2000/svg" width="42.477" height="42.477" viewBox="0 0 42.477 42.477">
  <g id="Addition-01" transform="translate(-25.5 -33.5)">
    <path id="Path_6778" data-name="Path 6778" d="M109.064,113.79h9.592a1.663,1.663,0,0,1,.551,3.242,2.566,2.566,0,0,1-.807.1q-4.4.018-8.809-.012c-.428,0-.526.122-.526.538q.018,4.331,0,8.662a1.669,1.669,0,0,1-1.566,1.8,1.644,1.644,0,0,1-1.774-1.725c-.012-2.863,0-5.713,0-8.576v-.685H96.61a1.659,1.659,0,0,1-1.811-1.652,1.639,1.639,0,0,1,1.713-1.688h9.2v-.551c0-2.985-.012-5.958,0-8.943a1.672,1.672,0,1,1,3.34.061c-.012,1.517,0,3.022,0,4.539v4.355C109.064,113.423,109.064,113.582,109.064,113.79Z" transform="translate(-60.821 -60.617)" fill="#083d5d"/>
    <g id="Group_795" data-name="Group 795" transform="translate(25.5 33.5)">
      <path id="Path_6779" data-name="Path 6779" d="M46.738,75.977A21.238,21.238,0,1,1,67.977,54.738,21.266,21.266,0,0,1,46.738,75.977Zm0-40.018A18.792,18.792,0,1,0,65.53,54.751,18.812,18.812,0,0,0,46.738,35.959Z" transform="translate(-25.5 -33.5)" fill="#083d5d"/>
    </g>
  </g>
</svg>
