<svg xmlns="http://www.w3.org/2000/svg" width="47.344" height="32.547" viewBox="0 0 47.344 32.547"><path d="M-.085,15.794a4.794,4.794,0,0,1,1.259-1.723Q7.826,7.442,14.463.8a2.231,2.231,0,0,1,2.8-.569,2.18,2.18,0,0,1,.689,3.251,4.919,4.919,0,0,1-.464.509L7.9,13.577a4.114,4.114,0,0,1-.39.33.463.463,0,0,1,.03.12H44.712A2.3,2.3,0,0,1,47,15.255a2.168,2.168,0,0,1-1.513,3.116,4.241,4.241,0,0,1-.869.06H7.466c.18.195.285.315.39.42q4.877,4.877,9.738,9.738a2.2,2.2,0,0,1,.255,3.146,2.171,2.171,0,0,1-3.026.27c-.165-.135-.315-.285-.479-.434Q7.758,24.986,1.158,18.4A4.624,4.624,0,0,1-.1,16.678C-.085,16.408-.085,16.094-.085,15.794Z" transform="translate(0.1 0.05)" fill="#ac8e8e" opacity="0.75"/></svg>