<svg xmlns="http://www.w3.org/2000/svg" width="453.548" height="72.973" viewBox="0 0 453.548 72.973">
  <g id="Group_799" data-name="Group 799" transform="translate(-274.036 -7806.902)">
    <g id="Group_775" data-name="Group 775" transform="translate(274.036 7806.902)">
      <path id="Path_6691" data-name="Path 6691" d="M974.215,8227.486l-11.371,25.4H936.061l19.992,19.992-6,27.582,27.583-15.191,19.588,15.191-3.6-27.582,17.589-19.992H985.3Z" transform="translate(-746.864 -8227.486)" fill="#ffc70d"/>
      <path id="Path_6694" data-name="Path 6694" d="M974.215,8227.486l-11.371,25.4H936.061l19.992,19.992-6,27.582,27.583-15.191,19.588,15.191-3.6-27.582,17.589-19.992H985.3Z" transform="translate(-652.265 -8227.486)" fill="#ffc70d"/>
      <path id="Path_6695" data-name="Path 6695" d="M974.215,8227.486l-11.371,25.4H936.061l19.992,19.992-6,27.582,27.583-15.191,19.588,15.191-3.6-27.582,17.589-19.992H985.3Z" transform="translate(-557.666 -8227.486)" fill="#ffc70d"/>
      <path id="Path_6692" data-name="Path 6692" d="M974.215,8227.486l-11.371,25.4H936.061l19.992,19.992-6,27.582,27.583-15.191,19.588,15.191-3.6-27.582,17.589-19.992H985.3Z" transform="translate(-841.462 -8227.486)" fill="#ffc70d"/>
      <path id="Path_6693" data-name="Path 6693" d="M974.215,8227.486l-11.371,25.4H936.061l19.992,19.992-6,27.582,27.583-15.191,19.588,15.191-3.6-27.582,17.589-19.992H985.3Z" transform="translate(-936.061 -8227.486)" fill="#ffc70d"/>
    </g>
  </g>
</svg>
