<svg xmlns="http://www.w3.org/2000/svg" width="42.477" height="42.477" viewBox="0 0 42.477 42.477">
  <g id="Substraction" transform="translate(-25.5 -33.5)">
    <path id="Path_6778" data-name="Path 6778" d="M109.663,113.79h8.992a1.663,1.663,0,0,1,.551,3.242,2.566,2.566,0,0,1-.807.1q-4.4.018-8.809-.012c-.428,0-4.27.012-4.453.012H96.61a1.659,1.659,0,0,1-1.811-1.652,1.639,1.639,0,0,1,1.713-1.688h13.152Z" transform="translate(-60.821 -60.617)" fill="#083d5d"/>
    <g id="Group_795" data-name="Group 795" transform="translate(25.5 33.5)">
      <path id="Path_6779" data-name="Path 6779" d="M46.738,75.977A21.238,21.238,0,1,1,67.977,54.738,21.266,21.266,0,0,1,46.738,75.977Zm0-40.018A18.792,18.792,0,1,0,65.53,54.751,18.812,18.812,0,0,0,46.738,35.959Z" transform="translate(-25.5 -33.5)" fill="#083d5d"/>
    </g>
  </g>
</svg>
